<svg xmlns="http://www.w3.org/2000/svg" viewBox="0 0 39.02 41"><defs><style>.cls-1{fill:#236bb4;}</style></defs><title>Cash_Hand</title><g id="Layer_2" data-name="Layer 2"><g id="Layer_1-2" data-name="Layer 1"><path class="cls-1" d="M19.51,25.65A12.83,12.83,0,1,0,6.63,12.83,12.87,12.87,0,0,0,19.51,25.65Zm0-24A11.22,11.22,0,1,1,8.24,12.83,11.26,11.26,0,0,1,19.51,1.61ZM17.82,15.31a.81.81,0,0,0-1.61,0,3.29,3.29,0,0,0,2.5,3.18v1a.81.81,0,0,0,1.61,0v-1a3.27,3.27,0,0,0,0-6.36V8.87a1.68,1.68,0,0,1,.88,1.47.81.81,0,0,0,1.61,0,3.29,3.29,0,0,0-2.5-3.18v-1a.81.81,0,0,0-1.61,0v1a3.27,3.27,0,0,0,0,6.36v3.27A1.68,1.68,0,0,1,17.82,15.31Zm2.5-1.47a1.67,1.67,0,0,1,0,2.94Zm-2.5-3.5a1.68,1.68,0,0,1,.89-1.47v2.94A1.68,1.68,0,0,1,17.82,10.34Zm21,21.59c-1.5-1.49-3.21-2.77-5.67-2.07l-5.72,1.89a2.63,2.63,0,0,0-2.72-2.63H19.79a12,12,0,0,0-7.37-2.56H8.06v-.48a.8.8,0,0,0-.81-.8H.81a.8.8,0,0,0-.81.8V37.64a.8.8,0,0,0,.81.8H7.26a.8.8,0,0,0,.81-.8v-.27c1.5.51,2.83,1,4,1.37,4.15,1.45,6.5,2.25,8.68,2.25,2.74,0,5.21-1.27,10.67-4.11,1.91-1,4.28-2.23,7.17-3.67a.8.8,0,0,0,.21-1.29ZM6.45,36.84H1.61v-10H6.45Zm24.21-1.37c-9.27,4.83-9.27,4.83-18.07,1.76-1.3-.45-2.8-1-4.52-1.55V28.16h4.35A10.45,10.45,0,0,1,19,30.55a.81.81,0,0,0,.49.17h5.17a1.13,1.13,0,0,1,0,2.26h-9a.8.8,0,1,0,0,1.61h9a2.62,2.62,0,0,0,2.09-.94l6.83-2.26a3.22,3.22,0,0,1,3.22.91C34.38,33.53,32.33,34.59,30.65,35.47Z"/></g></g></svg>