<svg xmlns="http://www.w3.org/2000/svg" viewBox="0 0 39 39"><defs><style>.cls-1{fill:#236bb4;}</style></defs><title>Cash</title><g id="Layer_2" data-name="Layer 2"><g id="Layer_1-2" data-name="Layer 1"><path class="cls-1" d="M19.5,0A19.5,19.5,0,1,0,39,19.5,19.52,19.52,0,0,0,19.5,0Zm0,37.08A17.58,17.58,0,1,1,37.08,19.5,17.6,17.6,0,0,1,19.5,37.08Zm2.88-21.42a1,1,0,0,0,1.92,0A4.8,4.8,0,0,0,20.46,11V9.27a1,1,0,0,0-1.92,0V11a4.79,4.79,0,0,0,0,9.4V26a2.87,2.87,0,0,1-1.92-2.7,1,1,0,0,0-1.92,0A4.8,4.8,0,0,0,18.54,28v1.7a1,1,0,0,0,1.92,0V28a4.8,4.8,0,0,0,0-9.4V13A2.87,2.87,0,0,1,22.38,15.66Zm-3.84,2.7a2.86,2.86,0,0,1,0-5.4Zm3.84,5A2.87,2.87,0,0,1,20.46,26v-5.4A2.87,2.87,0,0,1,22.38,23.34Z"/></g></g></svg>