<svg xmlns="http://www.w3.org/2000/svg" viewBox="0 0 80 67.65"><defs><style>.cls-1{fill:#006ac3}</style></defs><title>investments</title><g id="Layer_2" data-name="Layer 2"><g id="Basic"><g id="Marketing"><g id="Icons"><g id="icon-investments_80_" data-name="icon-investments (80)"><path class="cls-1" d="M29.42 22.34v39.37a.5.5 0 0 0 1 0V22.34a.5.5 0 0 0-1 0zM49.58 41.09v20.62a.5.5 0 1 0 1 0V41.09a.5.5 0 0 0-1 0zM73.64 14.84v46.87a.5.5 0 0 0 1 0V14.84a.5.5 0 1 0-1 0z"/><path class="cls-1" d="M5.86 43.59a5.85 5.85 0 0 0 5-8.83l16.28-16.25a5.82 5.82 0 0 0 5.86-.17l11.89 11.07A5.86 5.86 0 1 0 55 29l16.48-17.93A5.88 5.88 0 1 0 69.18 9L52.74 26.89a5.8 5.8 0 0 0-5.72.23L35.11 16.06a5.86 5.86 0 1 0-10.22.28L8.65 32.58a5.86 5.86 0 1 0-2.79 11zM74.14 3.13a2.73 2.73 0 1 1-2.73 2.73 2.74 2.74 0 0 1 2.73-2.73zM50.08 29.38a2.73 2.73 0 1 1-2.73 2.73 2.74 2.74 0 0 1 2.73-2.73zM29.92 10.63a2.73 2.73 0 1 1-2.73 2.73 2.73 2.73 0 0 1 2.73-2.73zM5.86 35a2.73 2.73 0 1 1-2.73 2.73A2.73 2.73 0 0 1 5.86 35zM5.36 46.71v15a.5.5 0 1 0 1 0v-15a.5.5 0 1 0-1 0zM78.44 64.53H1.56a1.56 1.56 0 0 0 0 3.13h76.88a1.56 1.56 0 0 0 0-3.12z"/></g></g></g></g></g></svg>