<svg xmlns="http://www.w3.org/2000/svg" viewBox="0 0 68.37 80"><defs><style>.cls-1{fill:#006ac3}</style></defs><title>insurance</title><g id="Layer_2" data-name="Layer 2"><g id="Basic"><g id="Marketing"><g id="Icons"><path id="icon-insurance_80_" data-name="icon-insurance (80)" class="cls-1" d="M36.08 4h-.67V1.23a1.23 1.23 0 0 0-2.46 0v2.71h-.67A34.17 34.17 0 0 0 0 38.06a1.24 1.24 0 0 0 .76 1.13 1.19 1.19 0 0 0 .94 0 1.2 1.2 0 0 0 .4-.26C4 37 5.62 35.41 9 35.41s5 1.63 6.88 3.51a1.23 1.23 0 0 0 1.34.27 1.25 1.25 0 0 0 .4-.27c1.45-1.45 7.66-3.19 14.61-3.47h.74V71a6.53 6.53 0 1 1-13.05 0 1.23 1.23 0 1 0-2.46 0 9 9 0 0 0 18 0V35.43h.74c6.95.28 13.16 2 14.61 3.47a1.24 1.24 0 0 0 .4.26 1.23 1.23 0 0 0 1.33-.26c1.85-1.9 3.46-3.49 6.85-3.49s5 1.63 6.88 3.51a1.2 1.2 0 0 0 .4.27 1.23 1.23 0 0 0 1.6-.66 1.2 1.2 0 0 0 .1-.47A34.17 34.17 0 0 0 36.08 4zM15.64 34l-.08 1.22-1-.67A9.72 9.72 0 0 0 9 33a9.88 9.88 0 0 0-5.11 1.33L2.61 35l.21-1.45A31.7 31.7 0 0 1 23 8.41l2.5-.95-1.7 2.06C19.24 15 16.27 24 15.64 34zm33.69 1.35A45.93 45.93 0 0 0 34.18 33 45.94 45.94 0 0 0 19 35.38l-1 .4.06-1.1c.43-7.55 2.27-14.61 5.18-19.88 3-5.46 6.9-8.46 10.94-8.46s7.93 3 10.94 8.46c2.88 5.27 4.76 12.33 5.18 19.87l.06 1.1zm15.17-1.07A9.88 9.88 0 0 0 59.39 33a9.73 9.73 0 0 0-5.56 1.62l-1 .67-.1-1.29c-.63-10-3.6-19-8.17-24.48l-1.7-2.06 2.5.95a31.71 31.71 0 0 1 20.2 25.16l.2 1.43z"/></g></g></g></g></svg>