<svg xmlns="http://www.w3.org/2000/svg" viewBox="0 0 80 74"><defs><style>.cls-1{fill:#006ac3}</style></defs><title>branch</title><g id="Layer_2" data-name="Layer 2"><g id="Basic"><g id="Marketing"><g id="Icons"><path id="icon-branch_80_" data-name="icon-branch (80)" class="cls-1" d="M79.29 20.43L40.62.15a1.33 1.33 0 0 0-1.24 0L.71 20.43a1.33 1.33 0 0 0 .62 2.52H12v40.12H6a3.72 3.72 0 0 0-3.71 3.71v3.5A3.72 3.72 0 0 0 6 74h68a3.72 3.72 0 0 0 3.71-3.71v-3.5A3.72 3.72 0 0 0 74 63.07h-6V22.94h10.67a1.33 1.33 0 0 0 .62-2.52zm-64.6 2.52H23v40.12h-8.32zm40.26 40.12h-8.64V22.94h8.64zm-10.64 0h-8.63V22.94h8.64zm-10.64 0H25V22.94h8.64zM74 65.74a1 1 0 0 1 1 1v3.5a1 1 0 0 1-1 1H6a1 1 0 0 1-1-1v-3.5a1 1 0 0 1 1-1h17.84a.52.52 0 0 0 .41 0h10.22a.53.53 0 0 0 .41 0h10.23a.53.53 0 0 0 .41 0h10.22a.53.53 0 0 0 .41 0zm-8.72-2.67h-8.33V22.94h8.37zM6.75 20.27L40 2.84l33.25 17.43z"/></g></g></g></g></svg>