<svg xmlns="http://www.w3.org/2000/svg" viewBox="0 0 39.99 39.99"><defs><style>.cls-1{fill:#236bb4;}</style></defs><title>Safe</title><g id="Layer_2" data-name="Layer 2"><g id="Layer_1-2" data-name="Layer 1"><path class="cls-1" d="M35.2,0H4.79A5.34,5.34,0,0,0,0,4.79V33.88a5.45,5.45,0,0,0,4,4.69v.6a.83.83,0,1,0,1.65,0v-.5H34.37v.5a.83.83,0,1,0,1.65,0v-.6a5.45,5.45,0,0,0,4-4.69V4.79A5.35,5.35,0,0,0,35.2,0Zm3.14,33.88A3.73,3.73,0,0,1,35.2,37H4.79a3.73,3.73,0,0,1-3.14-3.14V4.79A3.73,3.73,0,0,1,4.79,1.65H35.2a3.73,3.73,0,0,1,3.14,3.14ZM30.57,5.29H9.42A4,4,0,0,0,5.29,9.42v1.16h-.5A.83.83,0,0,0,4,11.4v5.29a.83.83,0,0,0,.83.83h.5v3.64h-.5A.83.83,0,0,0,4,22v5.29a.83.83,0,0,0,.83.83h.5v1.16a4,4,0,0,0,4.13,4.13H30.57a4,4,0,0,0,4.13-4.13V9.42A4,4,0,0,0,30.57,5.29Zm-24,21.15h-1V22.8h1Zm0-10.58h-1V12.23h1ZM33,29.25a2.3,2.3,0,0,1-2.48,2.48H9.42a2.3,2.3,0,0,1-2.48-2.48V28.09h.5a.83.83,0,0,0,.83-.83V22a.83.83,0,0,0-.83-.83h-.5V17.52h.5a.83.83,0,0,0,.83-.83V11.4a.83.83,0,0,0-.83-.83h-.5V9.42A2.3,2.3,0,0,1,9.42,6.94H30.57A2.3,2.3,0,0,1,33,9.42Zm-6.2-16.11h0a8.74,8.74,0,0,0-12.34,0h0v0a8.74,8.74,0,0,0,0,12.34l0,0,0,0a8.73,8.73,0,0,0,6.17,2.55h0a8.73,8.73,0,0,0,6.17-2.55l0,0,0,0a8.74,8.74,0,0,0,0-12.34Zm-1.79.62L23.4,15.42a4.75,4.75,0,0,0-1.92-.79V12.28A7.06,7.06,0,0,1,25.06,13.77Zm-5.23-1.48v2.34a4.75,4.75,0,0,0-1.92.79l-1.65-1.65A7.07,7.07,0,0,1,19.83,12.28Zm-4.74,2.65,1.65,1.65a4.75,4.75,0,0,0-.79,1.92H13.6A7.07,7.07,0,0,1,15.09,14.93ZM13.6,20.16h2.35a4.75,4.75,0,0,0,.79,1.92l-1.65,1.65A7.06,7.06,0,0,1,13.6,20.16Zm6.23,6.23a7.07,7.07,0,0,1-3.57-1.48l1.65-1.65a4.75,4.75,0,0,0,1.92.79Zm.83-3.91a3.14,3.14,0,1,1,3.14-3.14A3.14,3.14,0,0,1,20.66,22.47Zm.83,3.91V24a4.75,4.75,0,0,0,1.92-.79l1.65,1.65A7.06,7.06,0,0,1,21.48,26.39Zm4.74-2.65-1.65-1.65a4.75,4.75,0,0,0,.79-1.92h2.34A7.07,7.07,0,0,1,26.22,23.73Zm-.86-5.23a4.75,4.75,0,0,0-.79-1.92l1.65-1.65a7.07,7.07,0,0,1,1.48,3.57Z"/></g></g></svg>